<mxfile host="app.diagrams.net" agent="Mozilla/5.0 (Windows NT 10.0; Win64; x64) AppleWebKit/537.36 (KHTML, like Gecko) Chrome/127.0.0.0 Safari/537.36" version="24.7.7">
  <diagram name="Página-1" id="tluA1-gO0y8P84KMWta6">
    <mxGraphModel dx="1235" dy="716" grid="1" gridSize="10" guides="1" tooltips="1" connect="1" arrows="1" fold="1" page="1" pageScale="1" pageWidth="1169" pageHeight="827" background="none" math="0" shadow="0">
      <root>
        <mxCell id="0" />
        <mxCell id="1" parent="0" />
        <mxCell id="utvwr_QYpvc9jGgtbjAD-3" value="" style="edgeStyle=orthogonalEdgeStyle;rounded=0;orthogonalLoop=1;jettySize=auto;html=1;" edge="1" parent="1" source="utvwr_QYpvc9jGgtbjAD-1" target="utvwr_QYpvc9jGgtbjAD-2">
          <mxGeometry relative="1" as="geometry" />
        </mxCell>
        <mxCell id="utvwr_QYpvc9jGgtbjAD-1" value="INICIO" style="ellipse;whiteSpace=wrap;html=1;rounded=0;" vertex="1" parent="1">
          <mxGeometry x="330" y="60" width="120" height="80" as="geometry" />
        </mxCell>
        <mxCell id="utvwr_QYpvc9jGgtbjAD-5" value="" style="edgeStyle=orthogonalEdgeStyle;rounded=0;orthogonalLoop=1;jettySize=auto;html=1;" edge="1" parent="1" source="utvwr_QYpvc9jGgtbjAD-2" target="utvwr_QYpvc9jGgtbjAD-4">
          <mxGeometry relative="1" as="geometry" />
        </mxCell>
        <mxCell id="utvwr_QYpvc9jGgtbjAD-2" value="SEXO&lt;br&gt;IDADE" style="shape=hexagon;perimeter=hexagonPerimeter2;whiteSpace=wrap;html=1;fixedSize=1;rounded=0;" vertex="1" parent="1">
          <mxGeometry x="330" y="170" width="120" height="80" as="geometry" />
        </mxCell>
        <mxCell id="utvwr_QYpvc9jGgtbjAD-7" value="" style="edgeStyle=orthogonalEdgeStyle;rounded=0;orthogonalLoop=1;jettySize=auto;html=1;" edge="1" parent="1" source="utvwr_QYpvc9jGgtbjAD-4" target="utvwr_QYpvc9jGgtbjAD-6">
          <mxGeometry relative="1" as="geometry" />
        </mxCell>
        <mxCell id="utvwr_QYpvc9jGgtbjAD-4" value="LER SEXO&amp;nbsp;&lt;div&gt;LER IDADE&lt;/div&gt;" style="shape=parallelogram;perimeter=parallelogramPerimeter;whiteSpace=wrap;html=1;fixedSize=1;rounded=0;" vertex="1" parent="1">
          <mxGeometry x="330" y="280" width="120" height="60" as="geometry" />
        </mxCell>
        <mxCell id="utvwr_QYpvc9jGgtbjAD-13" value="" style="edgeStyle=orthogonalEdgeStyle;rounded=0;orthogonalLoop=1;jettySize=auto;html=1;entryX=0.5;entryY=0;entryDx=0;entryDy=0;" edge="1" parent="1" source="utvwr_QYpvc9jGgtbjAD-6" target="utvwr_QYpvc9jGgtbjAD-18">
          <mxGeometry relative="1" as="geometry">
            <mxPoint x="390.0000000000002" y="580" as="targetPoint" />
          </mxGeometry>
        </mxCell>
        <mxCell id="utvwr_QYpvc9jGgtbjAD-6" value="SEXO = feminino&lt;br&gt;IDADE &amp;lt; 25" style="rhombus;whiteSpace=wrap;html=1;rounded=0;" vertex="1" parent="1">
          <mxGeometry x="322.5" y="370" width="135" height="130" as="geometry" />
        </mxCell>
        <mxCell id="utvwr_QYpvc9jGgtbjAD-9" value="FIM" style="ellipse;whiteSpace=wrap;html=1;rounded=0;" vertex="1" parent="1">
          <mxGeometry x="330" y="690" width="120" height="80" as="geometry" />
        </mxCell>
        <mxCell id="utvwr_QYpvc9jGgtbjAD-27" style="edgeStyle=orthogonalEdgeStyle;rounded=0;orthogonalLoop=1;jettySize=auto;html=1;entryX=1;entryY=0.5;entryDx=0;entryDy=0;exitX=0.5;exitY=1;exitDx=0;exitDy=0;" edge="1" parent="1" source="utvwr_QYpvc9jGgtbjAD-10" target="utvwr_QYpvc9jGgtbjAD-9">
          <mxGeometry relative="1" as="geometry" />
        </mxCell>
        <mxCell id="utvwr_QYpvc9jGgtbjAD-10" value="ESCREVER ELIMINADO" style="shape=parallelogram;perimeter=parallelogramPerimeter;whiteSpace=wrap;html=1;fixedSize=1;rounded=0;" vertex="1" parent="1">
          <mxGeometry x="500" y="549.87" width="170" height="81.25" as="geometry" />
        </mxCell>
        <mxCell id="utvwr_QYpvc9jGgtbjAD-25" value="" style="edgeStyle=orthogonalEdgeStyle;rounded=0;hachureGap=4;orthogonalLoop=1;jettySize=auto;html=1;fontFamily=Architects Daughter;fontSource=https%3A%2F%2Ffonts.googleapis.com%2Fcss%3Ffamily%3DArchitects%2BDaughter;exitX=1;exitY=0.5;exitDx=0;exitDy=0;" edge="1" parent="1" source="utvwr_QYpvc9jGgtbjAD-6" target="utvwr_QYpvc9jGgtbjAD-10">
          <mxGeometry relative="1" as="geometry" />
        </mxCell>
        <mxCell id="utvwr_QYpvc9jGgtbjAD-14" value="NÃO" style="text;html=1;align=center;verticalAlign=middle;resizable=0;points=[];autosize=1;strokeColor=none;fillColor=none;rounded=0;" vertex="1" parent="1">
          <mxGeometry x="490" y="399" width="50" height="30" as="geometry" />
        </mxCell>
        <mxCell id="utvwr_QYpvc9jGgtbjAD-15" value="SIM" style="text;html=1;align=center;verticalAlign=middle;resizable=0;points=[];autosize=1;strokeColor=none;fillColor=none;rounded=0;" vertex="1" parent="1">
          <mxGeometry x="260" y="399" width="40" height="30" as="geometry" />
        </mxCell>
        <mxCell id="utvwr_QYpvc9jGgtbjAD-26" style="edgeStyle=orthogonalEdgeStyle;rounded=0;orthogonalLoop=1;jettySize=auto;html=1;entryX=0;entryY=0.5;entryDx=0;entryDy=0;" edge="1" parent="1" source="utvwr_QYpvc9jGgtbjAD-18" target="utvwr_QYpvc9jGgtbjAD-9">
          <mxGeometry relative="1" as="geometry">
            <mxPoint x="215" y="750" as="targetPoint" />
            <Array as="points">
              <mxPoint x="215" y="730" />
            </Array>
          </mxGeometry>
        </mxCell>
        <mxCell id="utvwr_QYpvc9jGgtbjAD-18" value="ESCREVER APROVADO" style="shape=parallelogram;perimeter=parallelogramPerimeter;whiteSpace=wrap;html=1;fixedSize=1;rounded=0;" vertex="1" parent="1">
          <mxGeometry x="130" y="548" width="170" height="85" as="geometry" />
        </mxCell>
      </root>
    </mxGraphModel>
  </diagram>
</mxfile>
